<?xml version="1.0" encoding="UTF-8"?>
<svg version="1.1" xmlns="http://www.w3.org/2000/svg" width="512" height="512">
<path d="M0 0 C23.2955749 14.94377027 55.37810235 40.11021399 62.51270878 67.95824063 C65.11711747 80.34468846 65.29727601 92.91957938 65.05859375 105.52734375 C65.04178952 106.52363186 65.02498528 107.51991998 65.00767183 108.54639864 C64.74306875 121.94707397 63.89324999 135.28909626 62.89306641 148.65203857 C61.73369776 164.30618047 60.98126473 179.98468968 60.44262081 195.67152411 C60.22916958 201.5110981 59.85036311 207.30726082 59.33321267 213.12737209 C57.23285288 234.02474772 57.23285288 234.02474772 65.65168256 252.38947028 C70.02664846 257.11097098 74.64054973 261.36680348 79.73155117 265.3051672 C89.41952312 272.92850755 89.41952312 272.92850755 90.62000155 277.21254039 C91.21685151 282.23001272 90.77396804 287.02623997 90 292 C73.96122583 300.54535554 57.77148744 308.78672119 41.53741837 316.95364189 C37.38586042 319.0423078 33.23733947 321.13657552 29.09521484 323.24389648 C25.03350727 325.31018288 20.96516597 327.36278944 16.89165878 329.40571022 C15.35266213 330.18040322 13.81607187 330.95989662 12.28201675 331.74432945 C10.15284193 332.83190356 8.01559173 333.90166009 5.87548828 334.9675293 C4.93734787 335.45429642 4.93734787 335.45429642 3.98025513 335.95089722 C0.07504517 337.86657501 -1.86846956 338.21134204 -6 337 C-8.94249825 335.73485846 -11.79164788 334.2999681 -14.64961243 332.85557556 C-15.51959765 332.42186459 -16.38958288 331.98815361 -17.28593129 331.54129988 C-20.20302509 330.08522546 -23.11574465 328.62060923 -26.02856445 327.15600586 C-28.11768761 326.11102122 -30.20707507 325.06656483 -32.29670715 324.02259827 C-37.97248351 321.18514108 -43.64452534 318.34029065 -49.31593728 315.49412227 C-54.64191638 312.82271507 -59.9706547 310.15682929 -65.29938712 307.49091954 C-75.85306792 302.21079716 -86.40405843 296.92532205 -96.95336914 291.63647461 C-107.20033415 286.49922112 -117.4485648 281.36450653 -127.69848633 276.2331543 C-128.33685698 275.91356697 -128.97522764 275.59397965 -129.63294286 275.26470786 C-135.1859623 272.48472881 -140.7390779 269.70494184 -146.29220295 266.92517376 C-170.19867121 254.95782812 -194.09880193 242.9778812 -218 231 C-218 189.75 -218 148.5 -218 106 C-164.49548302 79.12683241 -164.49548302 79.12683241 -142.125 67.91601562 C-137.01292879 65.35410616 -131.90093281 62.79204665 -126.7890625 60.22973633 C-126.14834541 59.90858654 -125.50762832 59.58743674 -124.84749556 59.25655514 C-114.49571903 54.06760919 -104.14821405 48.87019988 -93.80225387 43.66966855 C-83.18907673 38.33505252 -72.57137925 33.00951901 -61.94940639 27.69243771 C-55.98137058 24.70466825 -50.01565781 21.71239801 -44.05484772 18.71023369 C-38.44915267 15.88708841 -32.83798478 13.07514499 -27.22233963 10.27184677 C-25.15783295 9.23876522 -23.09539384 8.20154034 -21.03516006 7.15996361 C-18.23059019 5.74283983 -15.41908789 4.34055907 -12.60528564 2.94187927 C-11.37376829 2.31301281 -11.37376829 2.31301281 -10.1173718 1.67144197 C-8.98725553 1.11534355 -8.98725553 1.11534355 -7.83430862 0.54801083 C-7.1857463 0.2225905 -6.53718398 -0.10282982 -5.86896825 -0.43811136 C-3.51283158 -1.14646284 -2.2918724 -0.83844505 0 0 Z M-10.02967834 34.45471191 C-10.7737393 34.82631518 -11.51780025 35.19791844 -12.28440851 35.58078241 C-14.79741446 36.83645657 -17.30897261 38.09500008 -19.82055664 39.35351562 C-21.61369892 40.25022768 -23.40692911 41.14676396 -25.20024109 42.0431366 C-30.08522113 44.48548256 -34.96895987 46.9303014 -39.85248876 49.37554741 C-44.95005562 51.92744647 -50.04874763 54.47709542 -55.14732361 57.02697754 C-64.80956755 61.85965651 -74.47078963 66.6943747 -84.13165134 71.52981615 C-95.12705212 77.03309606 -106.12358238 82.5341172 -117.12021077 88.03494358 C-139.7480699 99.35410611 -162.37450047 110.67612177 -185 122 C-183.67113589 124.94635292 -182.22564598 127.02362474 -179.94277763 129.30331802 C-179.31178433 129.93829342 -178.68079103 130.57326882 -178.03067672 131.2274859 C-177.33613171 131.91620522 -176.6415867 132.60492455 -175.92599487 133.31451416 C-175.1892466 134.05297128 -174.45249832 134.79142841 -173.69342434 135.55226302 C-171.21685238 138.03213628 -168.73318661 140.50478115 -166.24951172 142.97753906 C-164.47541078 144.75107603 -162.70174978 146.52505317 -160.92849731 148.29943848 C-157.10638792 152.12200371 -153.28123099 155.94147788 -149.45327377 159.75818634 C-143.918698 165.27650889 -138.3896523 170.80034499 -132.86194123 176.3255429 C-123.8934764 185.28963035 -114.92055421 194.24924226 -105.94482422 203.20605469 C-97.2256849 211.90683632 -88.50864837 220.6097158 -79.79443359 229.31542969 C-78.98873296 230.12034215 -78.98873296 230.12034215 -78.16675554 230.94151548 C-75.4721296 233.63353135 -72.77754497 236.32558856 -70.08298087 239.01766634 C-47.72838819 261.35152518 -25.36648617 283.67805184 -3 306 C1.06071667 304.67710416 4.81996528 303.21250571 8.63818359 301.29443359 C9.71885101 300.75402435 10.79951843 300.21361511 11.91293335 299.65682983 C13.6382579 298.78642563 13.6382579 298.78642563 15.3984375 297.8984375 C16.60037976 297.29559893 17.80250053 296.69311618 19.00479126 296.0909729 C22.15309413 294.51302196 25.29896358 292.93027914 28.44433594 291.34649658 C31.66064228 289.72807384 34.87924698 288.11423559 38.09765625 286.5 C44.40068331 283.33779447 50.70114881 280.17051646 57 277 C57.31043118 274.01464499 57.31043118 274.01464499 55.59443665 272.22529316 C54.9307457 271.56436759 54.26705475 270.90344202 53.58325195 270.2224884 C52.82597809 269.46109055 52.06870422 268.69969269 51.28848267 267.91522217 C50.4469162 267.08444153 49.60534973 266.25366089 48.73828125 265.39770508 C47.8604599 264.51944565 46.98263855 263.64118622 46.07821655 262.73631287 C43.66628268 260.32611391 41.24787234 257.92277425 38.82638168 255.52219987 C36.29858914 253.01313025 33.77926022 250.49559219 31.2590332 247.97892761 C26.48386098 243.21308876 21.70109123 238.45495027 16.91556644 233.69950932 C11.46841872 228.28586543 6.02976245 222.86372523 0.59181404 217.44084322 C-10.59601445 206.28439302 -21.79449525 195.13869779 -33 184 C-12.74830362 173.29425256 -12.74830362 173.29425256 -3.39453125 168.6484375 C-2.10309456 168.00378036 -2.10309456 168.00378036 -0.78556824 167.34609985 C1.87115823 166.02045763 4.52928429 164.69765292 7.1875 163.375 C9.02809025 162.45722267 10.86858544 161.53925467 12.70898438 160.62109375 C17.13823695 158.41187659 21.56874404 156.20519583 26 154 C26.33094699 150.72758721 26.33094699 150.72758721 23.4296875 148.08911133 C22.25246159 146.91236127 21.06695862 145.74385576 19.875 144.58203125 C19.25351074 143.96478683 18.63202148 143.34754242 17.99169922 142.71159363 C16.00138167 140.73809421 14.00089605 138.77526775 12 136.8125 C10.65035991 135.47790263 9.30139264 134.14262449 7.953125 132.80664062 C4.64317773 129.52980425 1.32407262 126.26250403 -2 123 C-15.83821007 129.47530966 -29.53519871 136.20491431 -43.1875 143.0625 C-45.12425345 144.03339368 -47.06110198 145.0040977 -48.99804688 145.97460938 C-53.66645796 148.31423266 -58.3335946 150.65637907 -63 153 C-67.50454825 149.22875755 -71.80193876 145.3393403 -75.93359375 141.1640625 C-76.4563942 140.63984711 -76.97919464 140.11563171 -77.51783752 139.57553101 C-79.16012345 137.9277213 -80.7988665 136.27644099 -82.4375 134.625 C-83.56161467 133.49586045 -84.68596174 132.36695222 -85.81054688 131.23828125 C-88.54305235 128.49484812 -91.27239009 125.74830015 -94 123 C-91.1696761 120.76233798 -88.34136552 119.0469367 -85.11517334 117.43733215 C-83.64286255 116.69911476 -83.64286255 116.69911476 -82.14080811 115.94598389 C-81.07050354 115.41442688 -80.00019897 114.88286987 -78.89746094 114.33520508 C-77.76546265 113.76905991 -76.63346436 113.20291473 -75.46716309 112.61961365 C-72.37010615 111.07079868 -69.27061028 109.52692374 -66.17064953 107.98393083 C-62.9287611 106.36924459 -59.68914275 104.75001671 -56.44927979 103.13127136 C-50.31696613 100.06822064 -44.18262488 97.00925369 -38.04754281 93.95175236 C-31.0617233 90.47002612 -24.07817915 86.98374776 -17.09482145 83.49708712 C-2.73240487 76.3263269 11.6328552 69.16128236 26 62 C26 58.1070899 24.40050477 57.04920143 21.75660706 54.3910675 C21.14727829 53.79408554 20.53794952 53.19710358 19.91015625 52.58203125 C19.29103867 51.96478683 18.67192108 51.34754242 18.03404236 50.71159363 C16.72353149 49.40780909 15.40942593 48.10762941 14.09204102 46.81079102 C12.06720918 44.81713667 10.05326481 42.81298662 8.04101562 40.80664062 C6.76885078 39.5436444 5.4960846 38.28125353 4.22265625 37.01953125 C3.61535172 36.41647659 3.00804718 35.81342194 2.38233948 35.1920929 C-2.96728623 29.93416434 -3.69596512 31.27477528 -10.02967834 34.45471191 Z " fill="#000000" transform="translate(320,87)"/>
</svg>
